<svg width="145" height="42" viewBox="0 0 145 42" fill="none" xmlns="http://www.w3.org/2000/svg">
<path d="M9.99212 0L11.3381 4.14589H15.694L12.17 6.70821L13.516 10.8541L9.99212 8.2918L6.46819 10.8541L7.81421 6.70821L4.29028 4.14589H8.6461L9.99212 0Z" fill="#FFFBEB"/>
<path d="M5.9953 13L7.34132 17.1459H11.6971L8.17319 19.7081L9.51923 23.854L5.9953 21.2918L2.47137 23.854L3.81739 19.7081L0.293457 17.1459H4.64927L5.9953 13Z" fill="#FFFBEB"/>
<path d="M9.99212 29L11.3381 33.1459H15.694L12.17 35.7082L13.516 39.8541L9.99212 37.2918L6.46819 39.8541L7.81421 35.7082L4.29028 33.1459H8.6461L9.99212 29Z" fill="#FFFBEB"/>
<path d="M25.4799 32L26.4895 35.1094H29.7563L27.1134 37.0311L28.1229 40.1406L25.4799 38.2188L22.8371 40.1406L23.8465 37.0311L21.2036 35.1094H24.4704L25.4799 32Z" fill="#FFFBEB"/>
<path d="M32.9739 28L33.647 30.0729H35.8248L34.0629 31.3541L34.7359 33.4271L32.9739 32.1459L31.212 33.4271L31.885 31.3541L30.123 30.0729H32.3009L32.9739 28Z" fill="#FFFBEB"/>
<path d="M33.9732 36L34.6462 38.0729H36.8241L35.0621 39.3541L35.7352 41.4271L33.9732 40.1459L32.2112 41.4271L32.8843 39.3541L31.1223 38.0729H33.3002L33.9732 36Z" fill="#FFFBEB"/>
<path d="M39.9686 33L40.6416 35.073H42.8195L41.0575 36.354L41.7305 38.427L39.9686 37.1459L38.2066 38.427L38.8796 36.354L37.1177 35.073H39.2955L39.9686 33Z" fill="#FFFBEB"/>
<path d="M22.4824 3L23.4919 6.10942H26.7588L24.1158 8.03115L25.1254 11.1406L22.4824 9.21885L19.8395 11.1406L20.8489 8.03115L18.2061 6.10942H21.4728L22.4824 3Z" fill="#FFFBEB"/>
<path d="M29.9764 3L30.6494 5.07294H32.8273L31.0653 6.3541L31.7383 8.42705L29.9764 7.14589L28.2144 8.42705L28.8874 6.3541L27.1255 5.07294H29.3033L29.9764 3Z" fill="#FFFBEB"/>
<path d="M35.9715 7L36.6445 9.07294H38.8224L37.0604 10.3541L37.7335 12.4271L35.9715 11.1459L34.2095 12.4271L34.8826 10.3541L33.1206 9.07294H35.2985L35.9715 7Z" fill="#FFFBEB"/>
<path d="M31.9748 15L32.4236 16.3819H33.8755L32.7009 17.236L33.1495 18.618L31.9748 17.7639L30.8003 18.618L31.2489 17.236L30.0742 16.3819H31.5262L31.9748 15Z" fill="#FFFBEB"/>
<path d="M41.9668 7L42.4155 8.38196H43.8673L42.6928 9.23606L43.1414 10.618L41.9668 9.76392L40.7922 10.618L41.2408 9.23606L40.0662 8.38196H41.5181L41.9668 7Z" fill="#FFFBEB"/>
<path d="M1.99852 27L2.44719 28.382H3.89912L2.72448 29.236L3.17315 30.618L1.99852 29.764L0.823869 30.618L1.27254 29.236L0.0979004 28.382H1.54984L1.99852 27Z" fill="#FFFBEB"/>
<path d="M11.9904 23.9999L12.4391 25.3819H13.8911L12.7164 26.2361L13.165 27.6181L11.9904 26.7639L10.8158 27.6181L11.2645 26.2361L10.0898 25.3819H11.5418L11.9904 23.9999Z" fill="#FFFBEB"/>
<path d="M45.9637 33L46.4124 34.382H47.8643L46.6896 35.236L47.1383 36.618L45.9637 35.764L44.789 36.618L45.2377 35.236L44.063 34.382H45.5149L45.9637 33Z" fill="#FFFBEB"/>
<path d="M47.9621 8L48.4108 9.38197H49.8627L48.6882 10.2361L49.1368 11.618L47.9621 10.7639L46.7874 11.618L47.2362 10.2361L46.0615 9.38197H47.5135L47.9621 8Z" fill="#FFFBEB"/>
<path d="M11.9904 11L12.4391 12.382H13.8911L12.7164 13.2361L13.165 14.6181L11.9904 13.7639L10.8158 14.6181L11.2645 13.2361L10.0898 12.382H11.5418L11.9904 11Z" fill="#FFFBEB"/>
<path d="M17.9858 35L18.4346 36.382H19.8865L18.7118 37.236L19.1605 38.618L17.9858 37.764L16.8112 38.618L17.2599 37.236L16.0852 36.382H17.5372L17.9858 35Z" fill="#FFFBEB"/>
<path d="M18.0922 30.8359V17.2607H16.2212V14.452H21.3664V30.8359H18.0922ZM24.7612 30.8359V17.2607H22.8903V14.452H28.0354V30.8359H24.7612ZM29.91 25.4292V22.761H34.7278V25.4292H29.91ZM42.3954 23.3461H42.3018H42.3954L43.6349 18.2203L44.6405 14.452H47.5639L48.6163 30.8359H45.5526L45.1083 21.895H44.9914L43.3075 28.4954H41.3897L39.7059 21.895H39.5889L39.1446 30.8359H36.0809L37.1333 14.452H40.0567L41.0623 18.2203L42.3018 23.3461H42.3954ZM59.4885 14.452H65.1014V17.2607H60.6111L60.5409 17.4011L64.2828 24.2356C65.0468 25.6087 65.4288 26.6541 65.4288 27.3719C65.4288 28.9479 64.9065 30.1026 63.8619 30.8359H57.6643V28.1209H62.5054L62.5756 27.9804L58.3659 20.4204C57.7578 19.3282 57.4538 18.4388 57.4538 17.7522C57.4538 16.1294 58.132 15.0294 59.4885 14.452ZM66.9418 18.8757H69.4442L69.7951 19.7183C70.1381 19.4062 70.4577 19.1878 70.7539 19.0629C71.0658 18.9381 71.5257 18.8757 72.1338 18.8757H74.2386C74.8934 19.5154 75.408 20.3424 75.7822 21.3567C76.1563 22.3709 76.3434 23.4866 76.3434 24.7037C76.3434 27.3095 75.5639 29.3536 74.0047 30.8359H72.0168C71.1905 30.8359 70.5356 30.6175 70.0523 30.1806V34.3468H66.9418V18.8757ZM70.0523 28.3783H72.2975C72.8744 27.3953 73.1628 26.2016 73.1628 24.7973C73.1628 23.393 72.8666 22.2383 72.2741 21.3333H70.0523V28.3783ZM83.655 25.4292H81.1526C80.8252 25.8349 80.6615 26.3421 80.6615 26.9506C80.6615 27.5591 80.833 28.0351 81.176 28.3783H83.655V25.4292ZM78.6268 18.8757H84.4268C85.3623 19.4374 85.9781 20.085 86.2744 20.8183C86.5706 21.5361 86.7187 22.5191 86.7187 23.7674V27.2783C86.7187 28.5734 86.7499 29.7593 86.8123 30.8359H84.1462L83.7252 29.9933C83.1171 30.5551 82.2596 30.8359 81.1526 30.8359H79.6792C78.354 29.9621 77.6913 28.706 77.6913 27.0676C77.6913 25.4136 78.3695 24.1107 79.726 23.1589H81.9244C82.5324 23.1589 83.1015 23.3461 83.6316 23.7206V22.5504C83.6316 21.9418 83.3666 21.5361 82.8365 21.3333H78.6268V18.8757ZM91.6302 24.7505C91.6302 25.4058 91.7315 26.0768 91.9342 26.7634C92.1369 27.4343 92.4175 27.9726 92.7761 28.3783H96.2842V30.8359H91.1624C89.3226 29.3692 88.4027 27.3407 88.4027 24.7505C88.4027 22.1603 89.385 20.202 91.3495 18.8757H96.2842V21.3333H92.7761C92.0121 22.1291 91.6302 23.2681 91.6302 24.7505ZM102.789 21.3333H101.034C100.801 21.6141 100.606 22.0042 100.45 22.5035C100.309 23.0029 100.239 23.4866 100.239 23.9547H103.584C103.615 23.4866 103.553 23.0029 103.397 22.5035C103.241 21.9886 103.038 21.5985 102.789 21.3333ZM105.969 28.3783V30.8359H100.029C98.9375 30.1026 98.1657 29.1975 97.7135 28.1209C97.277 27.0286 97.0587 25.9286 97.0587 24.8207C97.0587 22.2617 98.0254 20.28 99.9587 18.8757H103.747C104.792 19.6403 105.501 20.4517 105.876 21.3099C106.25 22.1681 106.437 23.0341 106.437 23.9079C106.437 24.7817 106.367 25.5307 106.226 26.1548H100.403C100.45 26.5137 100.582 26.9272 100.801 27.3953C101.035 27.8478 101.284 28.1755 101.549 28.3783H105.969Z" fill="white"/>
</svg>
